<svg width="34" height="34" viewBox="0 0 34 34" fill="none" xmlns="http://www.w3.org/2000/svg">
<path d="M17 28.3333C20.0058 28.3333 22.8884 27.1393 25.0139 25.0139C27.1393 22.8884 28.3333 20.0058 28.3333 17C28.3333 13.9942 27.1393 11.1115 25.0139 8.9861C22.8884 6.86069 20.0058 5.66665 17 5.66665C13.9942 5.66665 11.1115 6.86069 8.9861 8.9861C6.86069 11.1115 5.66665 13.9942 5.66665 17C5.66665 20.0058 6.86069 22.8884 8.9861 25.0139C11.1115 27.1393 13.9942 28.3333 17 28.3333ZM17 2.83331C18.8604 2.83331 20.7026 3.19974 22.4213 3.91169C24.1401 4.62363 25.7018 5.66714 27.0173 6.98263C28.3328 8.29813 29.3763 9.85985 30.0883 11.5786C30.8002 13.2974 31.1666 15.1396 31.1666 17C31.1666 20.7572 29.6741 24.3606 27.0173 27.0173C24.3606 29.6741 20.7572 31.1666 17 31.1666C9.16581 31.1666 2.83331 24.7916 2.83331 17C2.83331 13.2427 4.32587 9.6394 6.98263 6.98263C9.6394 4.32587 13.2427 2.83331 17 2.83331ZM17.7083 9.91665V17.3541L24.0833 21.1366L23.0208 22.8791L15.5833 18.4166V9.91665H17.7083Z" fill="#C4C4C4"/>
</svg>
