<svg width="32" height="32" viewBox="0 0 32 32" fill="none" xmlns="http://www.w3.org/2000/svg">
<path d="M26.7 32H5.3C3.48 32 2 30.52 2 28.7V13.3C2 11.48 3.48 10 5.3 10H26.7C28.52 10 30 11.48 30 13.3V28.68C30 30.5 28.52 31.98 26.7 31.98V32ZM5.3 12C4.58 12 4 12.58 4 13.3V28.68C4 29.4 4.58 29.98 5.3 29.98H26.7C27.42 29.98 28 29.4 28 28.68V13.3C28 12.58 27.42 12 26.7 12H5.3Z" fill="#C4C4C4"/>
<path d="M25.08 12H6.91998V9.08C6.91998 4.08 11 0 16 0C21 0 25.08 4.08 25.08 9.08V12ZM8.91998 10H23.08V9.08C23.08 5.18 19.9 2 16 2C12.1 2 8.91998 5.18 8.91998 9.08V10Z" fill="#C4C4C4"/>
<path d="M24 23C25.1046 23 26 22.1046 26 21C26 19.8954 25.1046 19 24 19C22.8954 19 22 19.8954 22 21C22 22.1046 22.8954 23 24 23Z" fill="#C4C4C4"/>
<path d="M16 23C17.1046 23 18 22.1046 18 21C18 19.8954 17.1046 19 16 19C14.8954 19 14 19.8954 14 21C14 22.1046 14.8954 23 16 23Z" fill="#C4C4C4"/>
<path d="M8 23C9.10457 23 10 22.1046 10 21C10 19.8954 9.10457 19 8 19C6.89543 19 6 19.8954 6 21C6 22.1046 6.89543 23 8 23Z" fill="#C4C4C4"/>
</svg>
