<svg width="57" height="57" viewBox="0 0 57 57" fill="none" xmlns="http://www.w3.org/2000/svg">
<rect opacity="0.3" width="57" height="57" rx="5" fill="#30B8DE"/>
<path d="M29.9583 37.5562C29.2292 38.2708 28.1792 38.7083 27.0417 38.7083C24.6354 38.7083 22.6667 36.7396 22.6667 34.3333V29.9583H31.4167V32.4229C32.1458 31.3 33.1667 30.3521 34.3333 29.6812V27.0417H19.75V34.3333C19.75 36.725 20.9313 38.8396 22.7104 40.1667H16.8333V16.8333H19.75V19.75C19.75 20.5521 20.4063 21.2083 21.2083 21.2083H32.875C33.6771 21.2083 34.3333 20.5521 34.3333 19.75V16.8333H37.25V13.9167H15.1253C13.5211 13.9167 13.9167 13.7708 13.9167 15.375L13.9167 41.625C13.9167 43.2292 13.7709 43.0833 15.375 43.0833H32.875C31.5479 41.625 30.0458 39.6854 29.9583 37.5562ZM25.5833 24.125C25.5833 24.9271 26.2396 25.5833 27.0417 25.5833C27.8438 25.5833 28.5 24.9271 28.5 24.125C28.5 23.3229 27.8438 22.6667 27.0417 22.6667C26.2396 22.6667 25.5833 23.3229 25.5833 24.125Z" fill="#3165DC"/>
<path d="M37.9792 29.9583C38.5816 29.9583 39.1626 30.0352 39.7223 30.189C40.282 30.3428 40.8033 30.565 41.286 30.8555C41.7688 31.1461 42.211 31.4879 42.6126 31.8809C43.0143 32.274 43.3582 32.7162 43.6444 33.2075C43.9307 33.6989 44.1507 34.2222 44.3045 34.7776C44.4584 35.3331 44.5374 35.9141 44.5417 36.5208C44.5417 37.1232 44.4648 37.7043 44.311 38.264C44.1571 38.8237 43.935 39.3449 43.6444 39.8277C43.3539 40.3105 43.0121 40.7527 42.6191 41.1543C42.226 41.5559 41.7838 41.8998 41.2925 42.1861C40.8011 42.4724 40.2777 42.6924 39.7223 42.8462C39.1669 43 38.5859 43.079 37.9792 43.0833C37.3767 43.0833 36.7957 43.0064 36.236 42.8526C35.6763 42.6988 35.1551 42.4766 34.6723 42.1861C34.1895 41.8956 33.7473 41.5538 33.3457 41.1607C32.9441 40.7676 32.6001 40.3254 32.3139 39.8341C32.0276 39.3428 31.8076 38.8194 31.6538 38.264C31.5 37.7086 31.4209 37.1275 31.4167 36.5208C31.4167 35.9184 31.4936 35.3373 31.6474 34.7776C31.8012 34.218 32.0234 33.6967 32.3139 33.2139C32.6044 32.7311 32.9462 32.2889 33.3393 31.8873C33.7323 31.4857 34.1745 31.1418 34.6659 30.8555C35.1572 30.5693 35.6806 30.3492 36.236 30.1954C36.7914 30.0416 37.3725 29.9626 37.9792 29.9583ZM41.8436 34.3483L40.972 33.4767L36.7487 37.7L34.9863 35.9376L34.1147 36.8092L36.7487 39.4432L41.8436 34.3483Z" fill="#3165DC"/>
</svg>
