<svg width="57" height="57" viewBox="0 0 57 57" fill="none" xmlns="http://www.w3.org/2000/svg">
<rect opacity="0.3" width="57" height="57" rx="5" fill="#30B8DE"/>
<path d="M36.5208 28.5C38.6481 28.5 40.6882 29.3451 42.1924 30.8493C43.6966 32.3535 44.5417 34.3936 44.5417 36.5209C44.5417 38.6481 43.6966 40.6882 42.1924 42.1924C40.6882 43.6966 38.6481 44.5417 36.5208 44.5417C34.3936 44.5417 32.3534 43.6966 30.8492 42.1924C29.345 40.6882 28.5 38.6481 28.5 36.5209C28.5 34.3936 29.345 32.3535 30.8492 30.8493C32.3534 29.3451 34.3936 28.5 36.5208 28.5ZM32.91 32.91C32.7733 33.0468 32.6965 33.2322 32.6965 33.4255C32.6965 33.6189 32.7733 33.8043 32.91 33.9411L35.4898 36.5223L32.9129 39.0977C32.8451 39.1654 32.7913 39.2458 32.7546 39.3343C32.7179 39.4228 32.6989 39.5177 32.6989 39.6135C32.6988 39.7093 32.7176 39.8042 32.7542 39.8927C32.7908 39.9812 32.8445 40.0617 32.9122 40.1295C32.9799 40.1973 33.0603 40.2511 33.1488 40.2878C33.2372 40.3245 33.3321 40.3435 33.4279 40.3436C33.5237 40.3436 33.6186 40.3248 33.7071 40.2882C33.7957 40.2516 33.8762 40.1979 33.944 40.1302L36.5208 37.5534L39.1021 40.1331C39.1693 40.2028 39.2498 40.2583 39.3388 40.2966C39.4277 40.3348 39.5234 40.3549 39.6202 40.3557C39.717 40.3566 39.8131 40.3381 39.9027 40.3015C39.9923 40.2648 40.0737 40.2106 40.1422 40.1422C40.2106 40.0737 40.2648 39.9923 40.3014 39.9027C40.3381 39.8131 40.3565 39.7171 40.3557 39.6202C40.3549 39.5234 40.3347 39.4278 40.2965 39.3388C40.2583 39.2498 40.2028 39.1694 40.1331 39.1021L37.5533 36.5209L40.136 33.9396C40.2689 33.8021 40.3424 33.6179 40.3407 33.4267C40.339 33.2355 40.2623 33.0526 40.1272 32.9174C39.992 32.7823 39.8091 32.7056 39.6179 32.7039C39.4267 32.7022 39.2425 32.7757 39.105 32.9086L36.5223 35.4898L33.941 32.9086C33.8043 32.7719 33.6189 32.6951 33.4255 32.6951C33.2322 32.6951 33.0467 32.7719 32.91 32.9086M27.0694 35.7917H15.0104L14.8617 35.8019C14.5871 35.8397 14.3372 35.9802 14.1623 36.1952C13.9874 36.4102 13.9006 36.6835 13.9195 36.96C13.9384 37.2365 14.0616 37.4955 14.264 37.6846C14.4665 37.8738 14.7333 37.9791 15.0104 37.9792H27.1525C27.0417 37.2556 27.0138 36.5216 27.0694 35.7917ZM28.1092 32.1459H15.0104C14.7333 32.1458 14.4665 32.0405 14.264 31.8513C14.0616 31.6621 13.9384 31.4031 13.9195 31.1267C13.9006 30.8502 13.9874 30.5768 14.1623 30.3619C14.3372 30.1469 14.5871 30.0063 14.8617 29.9686L15.0104 29.9584H29.6812C29.0558 30.609 28.5264 31.3456 28.1092 32.1459ZM41.9896 24.125H15.0104L14.8617 24.1352C14.5871 24.173 14.3372 24.3136 14.1623 24.5285C13.9874 24.7435 13.9006 25.0168 13.9195 25.2933C13.9384 25.5698 14.0616 25.8288 14.264 26.018C14.4665 26.2072 14.7333 26.3124 15.0104 26.3125H41.9896L42.1383 26.3023C42.4129 26.2645 42.6628 26.124 42.8377 25.909C43.0126 25.694 43.0993 25.4207 43.0804 25.1442C43.0616 24.8677 42.9384 24.6088 42.7359 24.4196C42.5334 24.2304 42.2667 24.1251 41.9896 24.125ZM41.9896 18.2917H15.0104L14.8617 18.3019C14.5871 18.3397 14.3372 18.4802 14.1623 18.6952C13.9874 18.9102 13.9006 19.1835 13.9195 19.46C13.9384 19.7365 14.0616 19.9955 14.264 20.1846C14.4665 20.3738 14.7333 20.4791 15.0104 20.4792H41.9896L42.1383 20.469C42.4129 20.4312 42.6628 20.2906 42.8377 20.0757C43.0126 19.8607 43.0993 19.5874 43.0804 19.3109C43.0616 19.0344 42.9384 18.7754 42.7359 18.5862C42.5334 18.397 42.2667 18.2918 41.9896 18.2917Z" fill="#3165DC"/>
</svg>
