<svg width="197" height="30" viewBox="0 0 197 30" fill="none" xmlns="http://www.w3.org/2000/svg">
<path d="M0.4 18.8C0.4 12.32 4.24 8.12 9.64 8.12C14.12 8.12 15.52 10.72 15.52 10.72H15.6C15.6 10.72 15.56 10.2 15.56 9.56V0.599998H20.64V29H15.84V27.32C15.84 26.56 15.92 26 15.92 26H15.84C15.84 26 14.12 29.48 9.44 29.48C3.92 29.48 0.4 25.12 0.4 18.8ZM5.52 18.8C5.52 22.68 7.6 25.2 10.6 25.2C13.24 25.2 15.72 23.28 15.72 18.76C15.72 15.6 14.04 12.48 10.64 12.48C7.84 12.48 5.52 14.76 5.52 18.8ZM24.8131 18.8C24.8131 12.52 29.0931 8.12 35.1731 8.12C41.0531 8.12 44.2131 12.4 44.2131 17.8C44.2131 18.4 44.0931 19.76 44.0931 19.76H30.0131C30.3331 23.32 33.0931 25.16 36.1331 25.16C39.4131 25.16 42.0131 22.92 42.0131 22.92L43.9731 26.56C43.9731 26.56 40.8531 29.48 35.7731 29.48C29.0131 29.48 24.8131 24.6 24.8131 18.8ZM30.1731 16.28H39.0931C39.0131 13.52 37.2931 12.04 35.0531 12.04C32.4531 12.04 30.6531 13.64 30.1731 16.28ZM48.4016 29V8.6H53.2816V10.96C53.2816 11.72 53.2016 12.36 53.2016 12.36H53.2816C54.1616 10.64 56.4016 8.12 60.5216 8.12C65.0416 8.12 67.6016 10.48 67.6016 15.88V29H62.5616V16.92C62.5616 14.44 61.9216 12.76 59.3216 12.76C56.6016 12.76 54.6016 14.48 53.8416 16.92C53.5616 17.76 53.4816 18.68 53.4816 19.64V29H48.4016ZM73.8128 21.52V12.96H71.1728V8.92H73.9328V3.04H78.8928V8.92H83.5328V12.96H78.8928V20.88C78.8928 24.24 81.5328 24.72 82.9328 24.72C83.4928 24.72 83.8528 24.64 83.8528 24.64V29.08C83.8528 29.08 83.2528 29.2 82.2928 29.2C79.4528 29.2 73.8128 28.36 73.8128 21.52ZM86.2909 23.12C86.2909 16.64 95.0509 16.2 98.3709 16.2H99.0509V15.92C99.0509 13.24 97.3709 12.32 95.1309 12.32C92.2109 12.32 89.5309 14.28 89.5309 14.28L87.6109 10.64C87.6109 10.64 90.7709 8.12 95.6109 8.12C100.971 8.12 104.091 11.08 104.091 16.24V29H99.4109V27.32C99.4109 26.52 99.4909 25.88 99.4909 25.88H99.4109C99.4509 25.88 97.8509 29.48 93.2109 29.48C89.5709 29.48 86.2909 27.2 86.2909 23.12ZM91.4109 22.88C91.4109 24.24 92.4109 25.52 94.4909 25.52C97.1709 25.52 99.0909 22.64 99.0909 20.16V19.68H98.2109C95.6109 19.68 91.4109 20.04 91.4109 22.88ZM109.098 22.64V0.599998H114.138V21.88C114.138 24.12 114.898 24.68 116.218 24.68C116.618 24.68 116.978 24.64 116.978 24.64V29.08C116.978 29.08 116.218 29.2 115.378 29.2C112.578 29.2 109.098 28.48 109.098 22.64ZM121.545 29V0.599998H126.705V24.56H138.985V29H121.545ZM142.308 5.12V0.599998H147.348V5.12H142.308ZM142.308 29V8.6H147.388V29H142.308ZM152.972 29V8.6H157.852V10.96C157.852 11.72 157.772 12.36 157.772 12.36H157.852C158.732 10.64 160.972 8.12 165.092 8.12C169.612 8.12 172.172 10.48 172.172 15.88V29H167.132V16.92C167.132 14.44 166.492 12.76 163.892 12.76C161.172 12.76 159.172 14.48 158.412 16.92C158.132 17.76 158.052 18.68 158.052 19.64V29H152.972ZM177.503 29V0.599998H182.583V15.8H185.103L190.023 8.6H195.663L189.223 17.72V17.8L196.463 29H190.623L185.223 20.08H182.583V29H177.503Z" fill="#30B8DE"/>
</svg>
