<svg width="34" height="34" viewBox="0 0 34 34" fill="none" xmlns="http://www.w3.org/2000/svg">
<path d="M23.4998 18.4166V26.2083M29.9998 26.9166C29.9998 22.9103 29.9998 20.9057 28.5714 19.6619C27.1446 18.4166 24.8453 18.4166 20.2498 18.4166L16.9998 21.25L13.7498 18.4166C9.15428 18.4166 6.8549 18.4166 5.42815 19.6619C3.99977 20.9057 3.99977 22.9103 3.99977 26.9166C3.93279 30.6457 5.82889 31.8468 7.50002 32H26.5C28.5054 31.7821 30.0269 30.6647 29.9998 26.9166Z" stroke="#C4C4C4" stroke-width="1.5" stroke-linecap="round" stroke-linejoin="round"/>
<path d="M11.3126 18.4166V24.0833M11.3126 24.0833C12.1745 24.0833 13.0012 24.3818 13.6107 24.9132C14.2202 25.4445 14.5626 26.1652 14.5626 26.9166V28.3333M11.3126 24.0833C10.4506 24.0833 9.62396 24.3818 9.01446 24.9132C8.40497 25.4445 8.06256 26.1652 8.06256 26.9166V28.3333M22.6876 9.20831V7.79165C22.6876 7.14051 22.5405 6.49575 22.2546 5.89417C21.9688 5.2926 21.5499 4.746 21.0217 4.28558C20.4936 3.82515 19.8666 3.45992 19.1766 3.21074C18.4865 2.96156 17.747 2.83331 17.0001 2.83331C16.2532 2.83331 15.5136 2.96156 14.8235 3.21074C14.1335 3.45992 13.5065 3.82515 12.9784 4.28558C12.4503 4.746 12.0313 5.2926 11.7455 5.89417C11.4597 6.49575 11.3126 7.14051 11.3126 7.79165V9.20831C11.3126 9.85945 11.4597 10.5042 11.7455 11.1058C12.0313 11.7074 12.4503 12.254 12.9784 12.7144C13.5065 13.1748 14.1335 13.54 14.8235 13.7892C15.5136 14.0384 16.2532 14.1666 17.0001 14.1666C17.747 14.1666 18.4865 14.0384 19.1766 13.7892C19.8666 13.54 20.4936 13.1748 21.0217 12.7144C21.5499 12.254 21.9688 11.7074 22.2546 11.1058C22.5405 10.5042 22.6876 9.85945 22.6876 9.20831Z" stroke="#C4C4C4" stroke-width="1.5" stroke-linecap="round" stroke-linejoin="round"/>
<path d="M24.7188 27.2708C24.7188 27.5526 24.5903 27.8229 24.3618 28.0221C24.1332 28.2214 23.8232 28.3333 23.5 28.3333C23.1768 28.3333 22.8668 28.2214 22.6382 28.0221C22.4097 27.8229 22.2812 27.5526 22.2812 27.2708C22.2812 26.989 22.4097 26.7188 22.6382 26.5195C22.8668 26.3203 23.1768 26.2083 23.5 26.2083C23.8232 26.2083 24.1332 26.3203 24.3618 26.5195C24.5903 26.7188 24.7188 26.989 24.7188 27.2708Z" stroke="#C4C4C4" stroke-width="1.5"/>
</svg>
