<svg width="38" height="38" viewBox="0 0 38 38" fill="none" xmlns="http://www.w3.org/2000/svg">
<path d="M6.33331 28.5C6.33331 26.8203 7.00057 25.2093 8.1883 24.0216C9.37603 22.8339 10.9869 22.1666 12.6666 22.1666H25.3333C27.013 22.1666 28.6239 22.8339 29.8117 24.0216C30.9994 25.2093 31.6666 26.8203 31.6666 28.5C31.6666 29.3398 31.333 30.1453 30.7392 30.7391C30.1453 31.333 29.3398 31.6666 28.5 31.6666H9.49998C8.66013 31.6666 7.85467 31.333 7.26081 30.7391C6.66694 30.1453 6.33331 29.3398 6.33331 28.5Z" stroke="#C4C4C4" stroke-width="2" stroke-linejoin="round"/>
<path d="M19 15.8333C21.6234 15.8333 23.75 13.7067 23.75 11.0833C23.75 8.45996 21.6234 6.33331 19 6.33331C16.3766 6.33331 14.25 8.45996 14.25 11.0833C14.25 13.7067 16.3766 15.8333 19 15.8333Z" stroke="#C4C4C4" stroke-width="2"/>
</svg>
