<svg width="57" height="57" viewBox="0 0 57 57" fill="none" xmlns="http://www.w3.org/2000/svg">
<rect opacity="0.3" width="57" height="57" rx="5" fill="#30B8DE"/>
<path d="M35.7917 45.0833C33.7743 45.0833 32.0549 44.3721 30.6335 42.9498C29.2122 41.5274 28.501 39.808 28.5 37.7916C28.499 35.7753 29.2102 34.0559 30.6335 32.6335C32.0569 31.2112 33.7763 30.5 35.7917 30.5C37.8071 30.5 39.5269 31.2112 40.9513 32.6335C42.3756 34.0559 43.0863 35.7753 43.0833 37.7916C43.0804 39.808 42.3692 41.5279 40.9498 42.9512C39.5303 44.3746 37.811 45.0853 35.7917 45.0833ZM38.2344 41.2552L39.2552 40.2344L36.5208 37.5V33.4166H35.0625V38.0833L38.2344 41.2552ZM15.375 43.625V17.375H24.3802C24.6476 16.5243 25.1701 15.8257 25.9479 15.2794C26.7257 14.733 27.5764 14.4593 28.5 14.4583C29.4722 14.4583 30.3414 14.732 31.1075 15.2794C31.8736 15.8267 32.3899 16.5253 32.6563 17.375H41.625V29.4062C41.1875 29.0903 40.7257 28.8229 40.2396 28.6041C39.7535 28.3854 39.2431 28.191 38.7083 28.0208V20.2916H35.7917V24.6666H21.2083V20.2916H18.2917V40.7083H26.0208C26.191 41.243 26.3854 41.7534 26.6042 42.2396C26.8229 42.7257 27.0903 43.1875 27.4062 43.625H15.375ZM28.5 20.2916C28.9132 20.2916 29.2598 20.1516 29.5398 19.8716C29.8198 19.5916 29.9593 19.2455 29.9583 18.8333C29.9574 18.4211 29.8174 18.075 29.5383 17.795C29.2593 17.515 28.9132 17.375 28.5 17.375C28.0868 17.375 27.7407 17.515 27.4617 17.795C27.1826 18.075 27.0426 18.4211 27.0417 18.8333C27.0407 19.2455 27.1807 19.5921 27.4617 19.8731C27.7426 20.1541 28.0887 20.2936 28.5 20.2916Z" fill="#3165DC"/>
</svg>
