<svg width="743" height="778" viewBox="0 0 743 778" fill="none" xmlns="http://www.w3.org/2000/svg">
<path d="M3.78 90.075L11.13 79.89C11.34 80.1 11.655 80.38 12.075 80.73C12.495 81.08 13.335 81.71 14.595 82.62C15.925 83.53 17.255 84.335 18.585 85.035C19.985 85.735 21.7 86.365 23.73 86.925C25.76 87.485 27.755 87.765 29.715 87.765C32.725 87.765 35.28 86.995 37.38 85.455C39.48 83.845 40.53 81.605 40.53 78.735C40.53 76.355 39.305 74.255 36.855 72.435C34.475 70.545 31.535 68.9 28.035 67.5C24.605 66.1 21.175 64.56 17.745 62.88C14.315 61.2 11.375 58.82 8.925 55.74C6.545 52.66 5.355 49.02 5.355 44.82C5.355 38.66 7.735 33.515 12.495 29.385C17.255 25.255 23.205 23.19 30.345 23.19C34.685 23.19 38.71 23.855 42.42 25.185C46.13 26.515 48.755 27.845 50.295 29.175L52.605 31.17L46.725 42.195C46.165 41.705 45.395 41.11 44.415 40.41C43.505 39.64 41.615 38.66 38.745 37.47C35.875 36.28 33.04 35.685 30.24 35.685C27.02 35.685 24.325 36.525 22.155 38.205C20.055 39.885 19.005 42.02 19.005 44.61C19.005 46.99 20.195 49.055 22.575 50.805C25.025 52.555 27.965 54.095 31.395 55.425C34.825 56.755 38.255 58.26 41.685 59.94C45.115 61.62 48.02 64.035 50.4 67.185C52.85 70.265 54.075 74.01 54.075 78.42C54.075 84.58 51.835 89.76 47.355 93.96C42.945 98.16 36.995 100.26 29.505 100.26C26.425 100.26 23.415 99.91 20.475 99.21C17.605 98.51 15.19 97.67 13.23 96.69C11.27 95.71 9.555 94.73 8.085 93.75C6.615 92.7 5.53 91.825 4.83 91.125L3.78 90.075ZM61.7096 72.225C61.7096 63.965 64.2296 57.245 69.2696 52.065C74.3796 46.815 80.9246 44.19 88.9046 44.19C96.3946 44.19 102.205 46.605 106.335 51.435C110.535 56.195 112.635 62.25 112.635 69.6L112.32 74.745H75.3596C75.7796 79.225 77.4946 82.725 80.5046 85.245C83.5846 87.695 87.2246 88.92 91.4246 88.92C93.9446 88.92 96.4997 88.43 99.0897 87.45C101.68 86.47 103.64 85.49 104.97 84.51L106.86 83.04L112.005 92.595C111.795 92.805 111.48 93.085 111.06 93.435C110.64 93.785 109.695 94.415 108.225 95.325C106.825 96.165 105.355 96.935 103.815 97.635C102.275 98.265 100.28 98.86 97.8297 99.42C95.4496 99.98 92.9997 100.26 90.4797 100.26C81.8696 100.26 74.9046 97.565 69.5846 92.175C64.3346 86.715 61.7096 80.065 61.7096 72.225ZM75.7796 65.61H99.1947C99.1247 62.11 98.0747 59.38 96.0447 57.42C94.0846 55.46 91.5996 54.48 88.5897 54.48C85.1596 54.48 82.3246 55.46 80.0846 57.42C77.8446 59.38 76.4096 62.11 75.7796 65.61ZM119.114 83.565C119.114 80.835 119.674 78.42 120.794 76.32C121.914 74.22 123.454 72.54 125.414 71.28C127.444 70.02 129.509 68.97 131.609 68.13C133.779 67.29 136.159 66.695 138.749 66.345C141.409 65.925 143.614 65.68 145.364 65.61C147.114 65.47 148.934 65.4 150.824 65.4H152.609V64.665C152.609 58.365 149.179 55.215 142.319 55.215C140.079 55.215 137.734 55.67 135.284 56.58C132.834 57.42 130.944 58.26 129.614 59.1L127.619 60.36L122.579 50.805C123.209 50.315 124.084 49.72 125.204 49.02C126.394 48.25 128.809 47.27 132.449 46.08C136.089 44.82 139.799 44.19 143.579 44.19C150.649 44.19 156.109 46.045 159.959 49.755C163.879 53.465 165.839 58.715 165.839 65.505V99H153.554V94.59L153.764 90.81H153.554C153.624 90.81 153.484 91.16 153.134 91.86C152.784 92.49 152.189 93.26 151.349 94.17C150.509 95.08 149.494 95.99 148.304 96.9C147.114 97.81 145.539 98.58 143.579 99.21C141.619 99.91 139.519 100.26 137.279 100.26C132.239 100.26 127.934 98.755 124.364 95.745C120.864 92.735 119.114 88.675 119.114 83.565ZM132.554 82.935C132.554 84.825 133.254 86.47 134.654 87.87C136.054 89.2 138.049 89.865 140.639 89.865C143.999 89.865 146.834 88.395 149.144 85.455C151.524 82.445 152.714 79.225 152.714 75.795V74.535H150.404C138.504 74.535 132.554 77.335 132.554 82.935ZM179.718 99V45.45H192.528V51.645L192.318 55.32H192.528C193.998 52.38 196.273 49.79 199.353 47.55C202.503 45.31 206.038 44.19 209.958 44.19C218.148 44.19 223.363 47.865 225.603 55.215H225.813C227.353 52.135 229.768 49.545 233.058 47.445C236.418 45.275 240.093 44.19 244.083 44.19C255.773 44.19 261.618 50.98 261.618 64.56V99H248.283V67.08C248.283 63.58 247.758 60.92 246.708 59.1C245.728 57.28 243.803 56.37 240.933 56.37C237.643 56.37 234.878 57.525 232.638 59.835C230.398 62.075 228.858 64.98 228.018 68.55C227.598 70.23 227.388 72.54 227.388 75.48V99H214.053V67.08C214.053 63.65 213.563 61.025 212.583 59.205C211.603 57.315 209.678 56.37 206.808 56.37C203.518 56.37 200.718 57.525 198.408 59.835C196.168 62.075 194.593 65.015 193.683 68.655C193.263 70.265 193.053 72.54 193.053 75.48V99H179.718ZM274.857 82.305V24.45H288.087V80.31C288.087 83.11 288.507 85.035 289.347 86.085C290.257 87.135 291.657 87.66 293.547 87.66L295.542 87.555V99.21C294.212 99.42 292.812 99.525 291.342 99.525C289.172 99.525 287.247 99.35 285.567 99C283.887 98.58 282.172 97.845 280.422 96.795C278.672 95.675 277.307 93.89 276.327 91.44C275.347 88.99 274.857 85.945 274.857 82.305ZM301.651 72.225C301.651 63.965 304.171 57.245 309.211 52.065C314.321 46.815 320.866 44.19 328.846 44.19C336.336 44.19 342.146 46.605 346.276 51.435C350.476 56.195 352.576 62.25 352.576 69.6L352.261 74.745H315.301C315.721 79.225 317.436 82.725 320.446 85.245C323.526 87.695 327.166 88.92 331.366 88.92C333.886 88.92 336.441 88.43 339.031 87.45C341.621 86.47 343.581 85.49 344.911 84.51L346.801 83.04L351.946 92.595C351.736 92.805 351.421 93.085 351.001 93.435C350.581 93.785 349.636 94.415 348.166 95.325C346.766 96.165 345.296 96.935 343.756 97.635C342.216 98.265 340.221 98.86 337.771 99.42C335.391 99.98 332.941 100.26 330.421 100.26C321.811 100.26 314.846 97.565 309.526 92.175C304.276 86.715 301.651 80.065 301.651 72.225ZM315.721 65.61H339.136C339.066 62.11 338.016 59.38 335.986 57.42C334.026 55.46 331.541 54.48 328.531 54.48C325.101 54.48 322.266 55.46 320.026 57.42C317.786 59.38 316.351 62.11 315.721 65.61ZM359.056 92.385L365.146 83.04C365.566 83.46 366.161 84.02 366.931 84.72C367.771 85.35 369.451 86.225 371.971 87.345C374.561 88.395 377.151 88.92 379.741 88.92C381.701 88.92 383.346 88.5 384.676 87.66C386.076 86.82 386.776 85.63 386.776 84.09C386.776 82.69 385.866 81.43 384.046 80.31C382.296 79.12 380.126 78.035 377.536 77.055C375.016 76.075 372.461 74.955 369.871 73.695C367.351 72.365 365.181 70.545 363.361 68.235C361.611 65.925 360.736 63.16 360.736 59.94C360.736 55.11 362.661 51.295 366.511 48.495C370.361 45.625 375.261 44.19 381.211 44.19C384.781 44.19 388.071 44.715 391.081 45.765C394.091 46.745 396.191 47.76 397.381 48.81L399.166 50.28L394.231 60.15C393.881 59.8 393.356 59.38 392.656 58.89C391.956 58.33 390.451 57.63 388.141 56.79C385.901 55.95 383.556 55.53 381.106 55.53C379.216 55.53 377.606 55.95 376.276 56.79C374.946 57.56 374.281 58.75 374.281 60.36C374.281 61.69 375.156 62.915 376.906 64.035C378.726 65.085 380.896 66.1 383.416 67.08C386.006 68.06 388.561 69.18 391.081 70.44C393.671 71.7 395.841 73.52 397.591 75.9C399.411 78.21 400.321 80.975 400.321 84.195C400.321 88.815 398.466 92.665 394.756 95.745C391.046 98.755 386.076 100.26 379.846 100.26C375.926 100.26 372.216 99.595 368.716 98.265C365.286 96.935 362.801 95.64 361.261 94.38L359.056 92.385ZM406.531 92.385L412.621 83.04C413.041 83.46 413.636 84.02 414.406 84.72C415.246 85.35 416.926 86.225 419.446 87.345C422.036 88.395 424.626 88.92 427.216 88.92C429.176 88.92 430.821 88.5 432.151 87.66C433.551 86.82 434.251 85.63 434.251 84.09C434.251 82.69 433.341 81.43 431.521 80.31C429.771 79.12 427.601 78.035 425.011 77.055C422.491 76.075 419.936 74.955 417.346 73.695C414.826 72.365 412.656 70.545 410.836 68.235C409.086 65.925 408.211 63.16 408.211 59.94C408.211 55.11 410.136 51.295 413.986 48.495C417.836 45.625 422.736 44.19 428.686 44.19C432.256 44.19 435.546 44.715 438.556 45.765C441.566 46.745 443.666 47.76 444.856 48.81L446.641 50.28L441.706 60.15C441.356 59.8 440.831 59.38 440.131 58.89C439.431 58.33 437.926 57.63 435.616 56.79C433.376 55.95 431.031 55.53 428.581 55.53C426.691 55.53 425.081 55.95 423.751 56.79C422.421 57.56 421.756 58.75 421.756 60.36C421.756 61.69 422.631 62.915 424.381 64.035C426.201 65.085 428.371 66.1 430.891 67.08C433.481 68.06 436.036 69.18 438.556 70.44C441.146 71.7 443.316 73.52 445.066 75.9C446.886 78.21 447.796 80.975 447.796 84.195C447.796 88.815 445.941 92.665 442.231 95.745C438.521 98.755 433.551 100.26 427.321 100.26C423.401 100.26 419.691 99.595 416.191 98.265C412.761 96.935 410.276 95.64 408.736 94.38L406.531 92.385ZM7.35 225V150.45H20.685V173.445L20.475 177.96H20.685C20.825 177.75 21 177.47 21.21 177.12C21.49 176.77 22.085 176.14 22.995 175.23C23.975 174.32 25.025 173.55 26.145 172.92C27.335 172.22 28.875 171.59 30.765 171.03C32.655 170.47 34.65 170.19 36.75 170.19C43.96 170.19 49.7 172.78 53.97 177.96C58.31 183.14 60.48 189.895 60.48 198.225C60.48 206.625 58.17 213.415 53.55 218.595C49 223.705 43.12 226.26 35.91 226.26C33.81 226.26 31.815 225.98 29.925 225.42C28.105 224.86 26.6 224.195 25.41 223.425C24.29 222.655 23.275 221.885 22.365 221.115C21.525 220.345 20.93 219.68 20.58 219.12L19.95 218.28H19.74C19.88 219.33 19.95 220.555 19.95 221.955V225H7.35ZM20.265 198.54C20.265 203.02 21.42 206.905 23.73 210.195C26.11 213.415 29.4 215.025 33.6 215.025C37.45 215.025 40.635 213.555 43.155 210.615C45.745 207.605 47.04 203.545 47.04 198.435C47.04 193.395 45.815 189.335 43.365 186.255C40.915 183.175 37.695 181.635 33.705 181.635C29.925 181.635 26.74 183.07 24.15 185.94C21.56 188.74 20.265 192.94 20.265 198.54ZM97.0545 226.26C88.7245 226.26 81.7245 223.635 76.0545 218.385C70.3845 213.065 67.5495 206.345 67.5495 198.225C67.5495 190.105 70.3845 183.42 76.0545 178.17C81.7245 172.85 88.6895 170.19 96.9495 170.19C105.209 170.19 112.174 172.85 117.844 178.17C123.584 183.42 126.454 190.105 126.454 198.225C126.454 206.345 123.619 213.065 117.949 218.385C112.279 223.635 105.314 226.26 97.0545 226.26ZM81.0945 198.225C81.0945 203.125 82.6345 207.15 85.7145 210.3C88.7945 213.38 92.5745 214.92 97.0545 214.92C101.464 214.92 105.209 213.38 108.289 210.3C111.369 207.15 112.909 203.125 112.909 198.225C112.909 193.395 111.369 189.405 108.289 186.255C105.209 183.105 101.464 181.53 97.0545 181.53C92.6445 181.53 88.8645 183.105 85.7145 186.255C82.6345 189.405 81.0945 193.395 81.0945 198.225ZM162.679 226.26C154.349 226.26 147.349 223.635 141.679 218.385C136.009 213.065 133.174 206.345 133.174 198.225C133.174 190.105 136.009 183.42 141.679 178.17C147.349 172.85 154.314 170.19 162.574 170.19C170.834 170.19 177.799 172.85 183.469 178.17C189.209 183.42 192.079 190.105 192.079 198.225C192.079 206.345 189.244 213.065 183.574 218.385C177.904 223.635 170.939 226.26 162.679 226.26ZM146.719 198.225C146.719 203.125 148.259 207.15 151.339 210.3C154.419 213.38 158.199 214.92 162.679 214.92C167.089 214.92 170.834 213.38 173.914 210.3C176.994 207.15 178.534 203.125 178.534 198.225C178.534 193.395 176.994 189.405 173.914 186.255C170.834 183.105 167.089 181.53 162.679 181.53C158.269 181.53 154.489 183.105 151.339 186.255C148.259 189.405 146.719 193.395 146.719 198.225ZM202.789 225V150.45H216.124V190.35H222.739L235.654 171.45H250.459L233.554 195.39V195.6L252.559 225H237.229L223.054 201.585H216.124V225H202.789ZM260.724 162.315V150.45H273.954V162.315H260.724ZM260.724 225V171.45H274.059V225H260.724ZM288.717 225V171.45H301.527V177.645L301.317 181.32H301.527C302.997 178.45 305.307 175.895 308.457 173.655C311.677 171.345 315.702 170.19 320.532 170.19C332.922 170.19 339.117 176.98 339.117 190.56V225H325.887V193.29C325.887 189.72 325.257 187.025 323.997 185.205C322.807 183.315 320.602 182.37 317.382 182.37C313.882 182.37 310.872 183.385 308.352 185.415C305.832 187.375 304.047 190 302.997 193.29C302.367 195.18 302.052 197.56 302.052 200.43V225H288.717ZM358.572 232.245C363.052 234.555 367.987 235.71 373.377 235.71C377.857 235.71 381.497 234.66 384.297 232.56C387.097 230.46 388.497 227.17 388.497 222.69V219.54L388.707 216.705H388.497C385.277 221.535 380.307 223.95 373.587 223.95C366.167 223.95 360.287 221.36 355.947 216.18C351.677 210.93 349.542 204.49 349.542 196.86C349.542 189.16 351.642 182.79 355.842 177.75C360.042 172.71 365.852 170.19 373.272 170.19C375.442 170.19 377.472 170.435 379.362 170.925C381.252 171.345 382.757 171.905 383.877 172.605C385.067 173.235 386.047 173.9 386.817 174.6C387.657 175.3 388.252 175.86 388.602 176.28L389.127 177.015H389.442C389.372 176.595 389.337 176.105 389.337 175.545V171.45H401.832V221.745C401.832 226.155 401.027 230.04 399.417 233.4C397.807 236.76 395.637 239.385 392.907 241.275C390.177 243.235 387.167 244.67 383.877 245.58C380.657 246.56 377.227 247.05 373.587 247.05C366.727 247.05 360.392 245.51 354.582 242.43L358.572 232.245ZM376.422 212.715C380.062 212.715 383.037 211.49 385.347 209.04C387.657 206.59 388.812 202.565 388.812 196.965C388.812 186.675 384.402 181.53 375.582 181.53C371.592 181.53 368.477 182.895 366.237 185.625C364.067 188.285 362.982 191.89 362.982 196.44C362.982 201.27 364.172 205.19 366.552 208.2C368.932 211.21 372.222 212.715 376.422 212.715ZM410.916 236.025L417.951 211.455H431.076L420.996 236.025H410.916ZM7.35 351V276.45H20.685V299.445L20.475 303.96H20.685C20.825 303.75 21 303.47 21.21 303.12C21.49 302.77 22.085 302.14 22.995 301.23C23.975 300.32 25.025 299.55 26.145 298.92C27.335 298.22 28.875 297.59 30.765 297.03C32.655 296.47 34.65 296.19 36.75 296.19C43.96 296.19 49.7 298.78 53.97 303.96C58.31 309.14 60.48 315.895 60.48 324.225C60.48 332.625 58.17 339.415 53.55 344.595C49 349.705 43.12 352.26 35.91 352.26C33.81 352.26 31.815 351.98 29.925 351.42C28.105 350.86 26.6 350.195 25.41 349.425C24.29 348.655 23.275 347.885 22.365 347.115C21.525 346.345 20.93 345.68 20.58 345.12L19.95 344.28H19.74C19.88 345.33 19.95 346.555 19.95 347.955V351H7.35ZM20.265 324.54C20.265 329.02 21.42 332.905 23.73 336.195C26.11 339.415 29.4 341.025 33.6 341.025C37.45 341.025 40.635 339.555 43.155 336.615C45.745 333.605 47.04 329.545 47.04 324.435C47.04 319.395 45.815 315.335 43.365 312.255C40.915 309.175 37.695 307.635 33.705 307.635C29.925 307.635 26.74 309.07 24.15 311.94C21.56 314.74 20.265 318.94 20.265 324.54ZM71.5395 351V297.45H84.3495V306.69L84.1395 310.47H84.3495C85.6095 306.48 87.7445 303.19 90.7545 300.6C93.8345 298.01 97.3695 296.715 101.359 296.715L103.774 296.925V310.05C102.864 309.91 101.814 309.84 100.624 309.84C97.4745 309.84 94.5345 310.785 91.8045 312.675C89.1445 314.565 87.2195 317.365 86.0295 321.075C85.2595 323.455 84.8745 326.36 84.8745 329.79V351H71.5395ZM112.76 288.315V276.45H125.99V288.315H112.76ZM112.76 351V297.45H126.095V351H112.76ZM146.213 358.245C150.693 360.555 155.628 361.71 161.018 361.71C165.498 361.71 169.138 360.66 171.938 358.56C174.738 356.46 176.138 353.17 176.138 348.69V345.54L176.348 342.705H176.138C172.918 347.535 167.948 349.95 161.228 349.95C153.808 349.95 147.928 347.36 143.588 342.18C139.318 336.93 137.183 330.49 137.183 322.86C137.183 315.16 139.283 308.79 143.483 303.75C147.683 298.71 153.493 296.19 160.913 296.19C163.083 296.19 165.113 296.435 167.003 296.925C168.893 297.345 170.398 297.905 171.518 298.605C172.708 299.235 173.688 299.9 174.458 300.6C175.298 301.3 175.893 301.86 176.243 302.28L176.768 303.015H177.083C177.013 302.595 176.978 302.105 176.978 301.545V297.45H189.473V347.745C189.473 352.155 188.668 356.04 187.058 359.4C185.448 362.76 183.278 365.385 180.548 367.275C177.818 369.235 174.808 370.67 171.518 371.58C168.298 372.56 164.868 373.05 161.228 373.05C154.368 373.05 148.033 371.51 142.223 368.43L146.213 358.245ZM164.063 338.715C167.703 338.715 170.678 337.49 172.988 335.04C175.298 332.59 176.453 328.565 176.453 322.965C176.453 312.675 172.043 307.53 163.223 307.53C159.233 307.53 156.118 308.895 153.878 311.625C151.708 314.285 150.623 317.89 150.623 322.44C150.623 327.27 151.813 331.19 154.193 334.2C156.573 337.21 159.863 338.715 164.063 338.715ZM204.122 351V276.45H217.457V302.28L217.247 306.795H217.457C218.927 303.925 221.272 301.44 224.492 299.34C227.782 297.24 231.597 296.19 235.937 296.19C248.327 296.19 254.522 302.98 254.522 316.56V351H241.292V319.29C241.292 315.72 240.662 313.025 239.402 311.205C238.212 309.315 236.007 308.37 232.787 308.37C229.357 308.37 226.347 309.42 223.757 311.52C221.167 313.55 219.347 316.21 218.297 319.5C217.737 321.39 217.457 323.7 217.457 326.43V351H204.122ZM270.827 331.365V308.895H263.897V298.29H271.142V282.855H284.162V298.29H296.342V308.895H284.162V329.685C284.162 333.535 285.247 336.195 287.417 337.665C289.657 339.065 292.107 339.765 294.767 339.765L297.182 339.555V351.21C296.132 351.42 294.767 351.525 293.087 351.525C291.267 351.525 289.517 351.385 287.837 351.105C286.157 350.895 284.232 350.37 282.062 349.53C279.892 348.69 278.002 347.605 276.392 346.275C274.852 344.875 273.522 342.915 272.402 340.395C271.352 337.805 270.827 334.795 270.827 331.365ZM304.317 324.225C304.317 315.965 306.837 309.245 311.877 304.065C316.987 298.815 323.532 296.19 331.512 296.19C339.002 296.19 344.812 298.605 348.942 303.435C353.142 308.195 355.242 314.25 355.242 321.6L354.927 326.745H317.967C318.387 331.225 320.102 334.725 323.112 337.245C326.192 339.695 329.832 340.92 334.032 340.92C336.552 340.92 339.107 340.43 341.697 339.45C344.287 338.47 346.247 337.49 347.577 336.51L349.467 335.04L354.612 344.595C354.402 344.805 354.087 345.085 353.667 345.435C353.247 345.785 352.302 346.415 350.832 347.325C349.432 348.165 347.962 348.935 346.422 349.635C344.882 350.265 342.887 350.86 340.437 351.42C338.057 351.98 335.607 352.26 333.087 352.26C324.477 352.26 317.512 349.565 312.192 344.175C306.942 338.715 304.317 332.065 304.317 324.225ZM318.387 317.61H341.802C341.732 314.11 340.682 311.38 338.652 309.42C336.692 307.46 334.207 306.48 331.197 306.48C327.767 306.48 324.932 307.46 322.692 309.42C320.452 311.38 319.017 314.11 318.387 317.61ZM366.237 351V297.45H379.047V306.69L378.837 310.47H379.047C380.307 306.48 382.442 303.19 385.452 300.6C388.532 298.01 392.067 296.715 396.057 296.715L398.472 296.925V310.05C397.562 309.91 396.512 309.84 395.322 309.84C392.172 309.84 389.232 310.785 386.502 312.675C383.842 314.565 381.917 317.365 380.727 321.075C379.957 323.455 379.572 326.36 379.572 329.79V351H366.237ZM428.475 344.385L434.565 335.04C434.985 335.46 435.58 336.02 436.35 336.72C437.19 337.35 438.87 338.225 441.39 339.345C443.98 340.395 446.57 340.92 449.16 340.92C451.12 340.92 452.765 340.5 454.095 339.66C455.495 338.82 456.195 337.63 456.195 336.09C456.195 334.69 455.285 333.43 453.465 332.31C451.715 331.12 449.545 330.035 446.955 329.055C444.435 328.075 441.88 326.955 439.29 325.695C436.77 324.365 434.6 322.545 432.78 320.235C431.03 317.925 430.155 315.16 430.155 311.94C430.155 307.11 432.08 303.295 435.93 300.495C439.78 297.625 444.68 296.19 450.63 296.19C454.2 296.19 457.49 296.715 460.5 297.765C463.51 298.745 465.61 299.76 466.8 300.81L468.585 302.28L463.65 312.15C463.3 311.8 462.775 311.38 462.075 310.89C461.375 310.33 459.87 309.63 457.56 308.79C455.32 307.95 452.975 307.53 450.525 307.53C448.635 307.53 447.025 307.95 445.695 308.79C444.365 309.56 443.7 310.75 443.7 312.36C443.7 313.69 444.575 314.915 446.325 316.035C448.145 317.085 450.315 318.1 452.835 319.08C455.425 320.06 457.98 321.18 460.5 322.44C463.09 323.7 465.26 325.52 467.01 327.9C468.83 330.21 469.74 332.975 469.74 336.195C469.74 340.815 467.885 344.665 464.175 347.745C460.465 350.755 455.495 352.26 449.265 352.26C445.345 352.26 441.635 351.595 438.135 350.265C434.705 348.935 432.22 347.64 430.68 346.38L428.475 344.385ZM480.465 351V297.45H493.275V303.645L493.065 307.32H493.275C494.745 304.38 497.02 301.79 500.1 299.55C503.25 297.31 506.785 296.19 510.705 296.19C518.895 296.19 524.11 299.865 526.35 307.215H526.56C528.1 304.135 530.515 301.545 533.805 299.445C537.165 297.275 540.84 296.19 544.83 296.19C556.52 296.19 562.365 302.98 562.365 316.56V351H549.03V319.08C549.03 315.58 548.505 312.92 547.455 311.1C546.475 309.28 544.55 308.37 541.68 308.37C538.39 308.37 535.625 309.525 533.385 311.835C531.145 314.075 529.605 316.98 528.765 320.55C528.345 322.23 528.135 324.54 528.135 327.48V351H514.8V319.08C514.8 315.65 514.31 313.025 513.33 311.205C512.35 309.315 510.425 308.37 507.555 308.37C504.265 308.37 501.465 309.525 499.155 311.835C496.915 314.075 495.34 317.015 494.43 320.655C494.01 322.265 493.8 324.54 493.8 327.48V351H480.465ZM576.339 288.315V276.45H589.569V288.315H576.339ZM576.339 351V297.45H589.674V351H576.339ZM603.597 334.305V276.45H616.827V332.31C616.827 335.11 617.247 337.035 618.087 338.085C618.997 339.135 620.397 339.66 622.287 339.66L624.282 339.555V351.21C622.952 351.42 621.552 351.525 620.082 351.525C617.912 351.525 615.987 351.35 614.307 351C612.627 350.58 610.912 349.845 609.162 348.795C607.412 347.675 606.047 345.89 605.067 343.44C604.087 340.99 603.597 337.945 603.597 334.305ZM630.391 324.225C630.391 315.965 632.911 309.245 637.951 304.065C643.061 298.815 649.606 296.19 657.586 296.19C665.076 296.19 670.886 298.605 675.016 303.435C679.216 308.195 681.316 314.25 681.316 321.6L681.001 326.745H644.041C644.461 331.225 646.176 334.725 649.186 337.245C652.266 339.695 655.906 340.92 660.106 340.92C662.626 340.92 665.181 340.43 667.771 339.45C670.361 338.47 672.321 337.49 673.651 336.51L675.541 335.04L680.686 344.595C680.476 344.805 680.161 345.085 679.741 345.435C679.321 345.785 678.376 346.415 676.906 347.325C675.506 348.165 674.036 348.935 672.496 349.635C670.956 350.265 668.961 350.86 666.511 351.42C664.131 351.98 661.681 352.26 659.161 352.26C650.551 352.26 643.586 349.565 638.266 344.175C633.016 338.715 630.391 332.065 630.391 324.225ZM644.461 317.61H667.876C667.806 314.11 666.756 311.38 664.726 309.42C662.766 307.46 660.281 306.48 657.271 306.48C653.841 306.48 651.006 307.46 648.766 309.42C646.526 311.38 645.091 314.11 644.461 317.61ZM687.796 344.385L693.886 335.04C694.306 335.46 694.901 336.02 695.671 336.72C696.511 337.35 698.191 338.225 700.711 339.345C703.301 340.395 705.891 340.92 708.481 340.92C710.441 340.92 712.086 340.5 713.416 339.66C714.816 338.82 715.516 337.63 715.516 336.09C715.516 334.69 714.606 333.43 712.786 332.31C711.036 331.12 708.866 330.035 706.276 329.055C703.756 328.075 701.201 326.955 698.611 325.695C696.091 324.365 693.921 322.545 692.101 320.235C690.351 317.925 689.476 315.16 689.476 311.94C689.476 307.11 691.401 303.295 695.251 300.495C699.101 297.625 704.001 296.19 709.951 296.19C713.521 296.19 716.811 296.715 719.821 297.765C722.831 298.745 724.931 299.76 726.121 300.81L727.906 302.28L722.971 312.15C722.621 311.8 722.096 311.38 721.396 310.89C720.696 310.33 719.191 309.63 716.881 308.79C714.641 307.95 712.296 307.53 709.846 307.53C707.956 307.53 706.346 307.95 705.016 308.79C703.686 309.56 703.021 310.75 703.021 312.36C703.021 313.69 703.896 314.915 705.646 316.035C707.466 317.085 709.636 318.1 712.156 319.08C714.746 320.06 717.301 321.18 719.821 322.44C722.411 323.7 724.581 325.52 726.331 327.9C728.151 330.21 729.061 332.975 729.061 336.195C729.061 340.815 727.206 344.665 723.496 347.745C719.786 350.755 714.816 352.26 708.586 352.26C704.666 352.26 700.956 351.595 697.456 350.265C694.026 348.935 691.541 347.64 690.001 346.38L687.796 344.385Z" fill="#30B8DE"/>
<path d="M457.16 406.279C455.205 404.897 452.762 404.528 450.441 405.135C448.119 405.743 446.096 407.297 444.83 409.436C443.563 411.574 443.172 414.095 443.754 416.423C444.338 418.751 445.834 420.715 447.986 421.766C451.212 423.352 454.327 424.851 457.571 426.394C488.59 441.023 521.859 454.552 557.227 454.5C587.091 454.669 615.804 443.956 641.109 429.512C644.269 427.715 647.201 425.983 650.298 424.076C651.655 423.243 652.585 421.88 652.904 420.318C653.223 418.756 652.901 417.116 652.013 415.765C651.124 414.415 649.746 413.47 648.185 413.145C646.624 412.819 645.005 413.134 643.703 414.051C640.848 416.057 638.147 417.886 635.223 419.765C611.81 434.923 585.005 445.661 557.229 445.5C524.258 445.57 493.156 430.467 465.641 412.112C462.754 410.19 460.004 408.288 457.16 406.279Z" fill="#30B8DE"/>
<path d="M421.291 409.25C418.632 408.964 416.341 410.071 414.838 411.883C413.336 413.7 412.76 416.152 413.222 418.622C413.684 421.092 415.13 423.283 417.225 424.635C419.32 425.983 421.907 426.459 424.336 425.516C425.416 425.118 426.416 424.737 427.495 424.348C437.436 420.545 449.612 417.433 457.326 408.815C463.565 401.745 465.896 394.043 468.688 386.738C469.013 385.843 469.328 384.977 469.654 384.062C470.162 382.666 469.82 381.189 468.839 379.978C467.856 378.766 466.289 377.917 464.508 377.619C462.726 377.322 460.904 377.606 459.466 378.413C458.029 379.22 457.07 380.48 456.934 381.938C456.849 382.842 456.763 383.694 456.656 384.567C455.752 391.686 454.045 398.882 449.635 403.751C444.53 409.551 434.499 410.389 424.445 409.562C423.38 409.479 422.377 409.368 421.291 409.25Z" fill="#30B8DE"/>
<path d="M472 462C495.359 473.958 511.89 477.865 551 476.845" stroke="#DEDCDC" stroke-width="7" stroke-linecap="round"/>
<path d="M422 383.5C422 387.642 416.404 391 409.5 391C402.596 391 397 387.642 397 383.5C397 379.358 402.596 376 409.5 376C416.404 376 422 379.358 422 383.5Z" fill="#FFC8ED"/>
<path d="M707 390.5C707 394.642 701.404 398 694.5 398C687.596 398 682 394.642 682 390.5C682 386.358 687.596 383 694.5 383C701.404 383 707 386.358 707 390.5Z" fill="#FFC8ED"/>
</svg>
