<svg width="32" height="32" viewBox="0 0 32 32" fill="none" xmlns="http://www.w3.org/2000/svg">
<path d="M18.6666 6.66667C18 7.33333 16.6626 7.216 14.6666 5.568M14.6666 5.568C14.9617 5.32622 15.268 5.048 15.5853 4.73333C18.66 1.688 22.8466 2.284 24.808 4.73333C25.6426 5.776 27.2786 7.77467 26.428 12.6667M14.6666 5.568C14.3715 5.32622 14.0653 5.048 13.748 4.73333C10.6733 1.688 6.48664 2.284 4.5253 4.73333C3.17064 6.42667 -0.296029 10.64 8.1893 25.6533C8.5413 26.2747 9.2413 26.6667 9.99464 26.6667C11.1973 26.6667 12.1373 25.7067 12.176 24.5867C12.2373 22.8493 12.5733 20.9133 13.5106 20M21.3333 22.6667L22.2453 23.5787C22.4413 23.7747 22.54 23.8733 22.6586 23.8667C22.7786 23.86 22.8653 23.752 23.0386 23.5347L25.3333 20.6667M17.3333 20.6053V21.12C17.3333 22.7227 17.3333 23.524 17.5306 24.2573C17.7772 25.1669 18.2412 26.0029 18.8826 26.6933C19.4026 27.256 20.0906 27.6933 21.4653 28.5693C22.08 28.9613 22.388 29.1573 22.716 29.2493C23.12 29.3613 23.548 29.3613 23.952 29.2493C24.2786 29.1573 24.5866 28.9613 25.2013 28.5693C26.576 27.6933 27.264 27.256 27.784 26.6933C28.4254 26.0029 28.8894 25.1669 29.136 24.2573C29.3333 23.524 29.3333 22.724 29.3333 21.12V20.6053C29.3333 19.608 29.3333 19.1093 29.144 18.688C29.0252 18.4279 28.8582 18.1927 28.652 17.9947C28.3146 17.6747 27.836 17.4987 26.8786 17.148L24.9133 16.428C24.132 16.1427 23.7413 16 23.3333 16C22.9253 16 22.5346 16.1427 21.7533 16.4293L19.788 17.1493C18.8306 17.4987 18.352 17.6733 18.0146 17.9947C17.8079 18.1926 17.6405 18.4278 17.5213 18.688C17.3333 19.1093 17.3333 19.608 17.3333 20.6053Z" stroke="#C4C4C4" stroke-width="1.5" stroke-linecap="round" stroke-linejoin="round"/>
</svg>
