<svg width="57" height="57" viewBox="0 0 57 57" fill="none" xmlns="http://www.w3.org/2000/svg">
<rect opacity="0.3" width="57" height="57" rx="5" fill="#30B8DE"/>
<path d="M30.0604 26.1812C30.9463 24.9435 31.4226 23.4596 31.4226 21.9375C31.4226 20.4154 30.9463 18.9315 30.0604 17.6937C30.8899 17.1287 31.8713 16.8286 32.875 16.8333C34.2287 16.8333 35.527 17.3711 36.4842 18.3283C37.4414 19.2855 37.9792 20.5838 37.9792 21.9375C37.9792 23.2912 37.4414 24.5894 36.4842 25.5467C35.527 26.5039 34.2287 27.0416 32.875 27.0416C31.8713 27.0463 30.8899 26.7463 30.0604 26.1812ZM19.0208 21.9375C19.0208 20.928 19.3202 19.9411 19.881 19.1017C20.4419 18.2624 21.239 17.6082 22.1717 17.2218C23.1044 16.8355 24.1307 16.7344 25.1208 16.9314C26.1109 17.1283 27.0203 17.6145 27.7342 18.3283C28.448 19.0421 28.9341 19.9516 29.1311 20.9417C29.328 21.9318 29.2269 22.9581 28.8406 23.8908C28.4543 24.8234 27.8001 25.6206 26.9607 26.1814C26.1213 26.7423 25.1345 27.0416 24.125 27.0416C22.7713 27.0416 21.473 26.5039 20.5158 25.5467C19.5586 24.5894 19.0208 23.2912 19.0208 21.9375ZM21.9375 21.9375C21.9375 22.3701 22.0658 22.793 22.3061 23.1528C22.5465 23.5125 22.8882 23.7929 23.2879 23.9585C23.6876 24.124 24.1274 24.1673 24.5518 24.0829C24.9761 23.9985 25.3659 23.7902 25.6718 23.4843C25.9777 23.1783 26.1861 22.7886 26.2705 22.3642C26.3549 21.9399 26.3115 21.5001 26.146 21.1004C25.9804 20.7006 25.7 20.359 25.3403 20.1186C24.9806 19.8783 24.5576 19.75 24.125 19.75C23.5448 19.75 22.9884 19.9804 22.5782 20.3907C22.168 20.8009 21.9375 21.3573 21.9375 21.9375ZM34.3333 35.7916V38.7083H13.9167V35.7916C13.9167 35.7916 13.9167 29.9583 24.125 29.9583C34.3333 29.9583 34.3333 35.7916 34.3333 35.7916ZM31.4167 35.7916C31.2125 34.6541 29.4771 32.875 24.125 32.875C18.7729 32.875 16.9354 34.7854 16.8333 35.7916M34.2604 29.9583C35.1542 30.6535 35.885 31.536 36.4015 32.5437C36.918 33.5515 37.2076 34.6601 37.25 35.7916V38.7083H43.0833V35.7916C43.0833 35.7916 43.0833 30.4979 34.2458 29.9583H34.2604Z" fill="#3165DC"/>
</svg>
